<svg width="514" height="452" viewBox="0 0 514 452" fill="none" xmlns="http://www.w3.org/2000/svg">
<path d="M136.549 90.0001H136L136.44 91.9515C135.5 89.5001 136.549 90.0001 136.549 90.0001Z" fill="black"/>
<path fill-rule="evenodd" clip-rule="evenodd" d="M453.054 289.729L512.708 83.7287C515.856 72.8557 507.698 62.0001 496.379 62.0001H130.916L120.974 15.1036L120.459 12.674C119.852 9.8106 118.465 7.31263 116.568 5.35511C113.857 2.66321 110.123 1.00011 106 1.00011H103.251H15C6.71573 1.00011 0 7.71584 0 16.0001C0 24.2844 6.71573 31.0001 15 31.0001H93.6769L103.012 75.0358L148.699 273.614C132.417 280.543 121 296.688 121 315.5C121 336.282 134.932 353.809 153.965 359.252C157.947 360.39 162.152 361 166.5 361H195.5H407.5H438C446.284 361 453 354.284 453 346C453 337.716 446.284 331 438 331H209.292H177.214H161C160.621 331 160.244 331.014 159.872 331.042C154.001 328.192 150 322.526 150 316C150 308.905 154 304 161 302C163.5 302 166.254 302 168.908 302H178.998H209.964H436.724C444.292 302 450.949 296.998 453.054 289.729ZM479 90.0001L425 273H303.019L179.959 272.024L177 272L176.814 271.174L136.44 91.9515L136 90.0001H136.549H479Z" fill="black"/>
<path fill-rule="evenodd" clip-rule="evenodd" d="M407.5 452C432.629 452 453 431.629 453 406.5C453 381.371 432.629 361 407.5 361C382.371 361 362 381.371 362 406.5C362 431.629 382.371 452 407.5 452ZM408 422C416.837 422 424 414.837 424 406C424 397.164 416.837 390 408 390C399.163 390 392 397.164 392 406C392 414.837 399.163 422 408 422Z" fill="black"/>
<path fill-rule="evenodd" clip-rule="evenodd" d="M195.5 452C220.629 452 241 431.629 241 406.5C241 381.371 220.629 361 195.5 361C170.371 361 150 381.371 150 406.5C150 431.629 170.371 452 195.5 452ZM196 422C204.837 422 212 414.837 212 406C212 397.164 204.837 390 196 390C187.163 390 180 397.164 180 406C180 414.837 187.163 422 196 422Z" fill="black"/>
</svg>
