<svg width="514" height="452" viewBox="0 0 514 452" fill="none" xmlns="http://www.w3.org/2000/svg">
<path d="M136.549 89.2184H136L136.44 91.1698C135.5 88.7184 136.549 89.2184 136.549 89.2184Z" fill="#38220F"/>
<path fill-rule="evenodd" clip-rule="evenodd" d="M453.054 288.947L512.708 82.947C515.856 72.074 507.698 61.2184 496.379 61.2184H130.916L120.974 14.3219L120.459 11.8922C119.852 9.02886 118.465 6.5309 116.568 4.57337C113.857 1.88148 110.123 0.218369 106 0.218369H103.251H15C6.71573 0.218369 0 6.9341 0 15.2184C0 23.5026 6.71573 30.2184 15 30.2184H93.6769L103.012 74.254L148.699 272.832C132.417 279.761 121 295.906 121 314.718C121 335.5 134.932 353.027 153.965 358.47C157.947 359.609 162.152 360.218 166.5 360.218H195.5H407.5H438C446.284 360.218 453 353.503 453 345.218C453 336.934 446.284 330.218 438 330.218H209.292H177.214H161C160.621 330.218 160.244 330.232 159.872 330.26C154.001 327.411 150 321.744 150 315.218C150 308.123 154 303.218 161 301.218C163.5 301.218 166.254 301.218 168.908 301.218H178.998H209.964H436.724C444.292 301.218 450.949 296.216 453.054 288.947ZM479 89.2184L425 272.218H303.019L179.959 271.242L177 271.218L176.814 270.392L136.44 91.1698L136 89.2184H136.549H479Z" fill="#38220F"/>
<path fill-rule="evenodd" clip-rule="evenodd" d="M407.5 451.218C432.629 451.218 453 430.847 453 405.718C453 380.589 432.629 360.218 407.5 360.218C382.371 360.218 362 380.589 362 405.718C362 430.847 382.371 451.218 407.5 451.218ZM408 421.218C416.837 421.218 424 414.055 424 405.218C424 396.382 416.837 389.218 408 389.218C399.163 389.218 392 396.382 392 405.218C392 414.055 399.163 421.218 408 421.218Z" fill="#38220F"/>
<path fill-rule="evenodd" clip-rule="evenodd" d="M195.5 451.218C220.629 451.218 241 430.847 241 405.718C241 380.589 220.629 360.218 195.5 360.218C170.371 360.218 150 380.589 150 405.718C150 430.847 170.371 451.218 195.5 451.218ZM196 421.218C204.837 421.218 212 414.055 212 405.218C212 396.382 204.837 389.218 196 389.218C187.163 389.218 180 396.382 180 405.218C180 414.055 187.163 421.218 196 421.218Z" fill="#38220F"/>
</svg>
