<svg width="2252" height="2495" viewBox="0 0 2252 2495" fill="none" xmlns="http://www.w3.org/2000/svg">
<path d="M1433.5 517L615 2332H320.5L612 1690.5L80.5 517H375.5L757.5 1360L1137.5 517H1433.5Z" fill="#003466"/>
<path d="M801 1C740.333 48.8333 639.3 187.3 720.5 358.5C822 572.5 834 674 618.5 716C661.833 692.667 716.2 602.5 587 428.5C425.5 211 678.5 27.5 801 1Z" fill="#003466"/>
<path d="M915.5 339.5C896 352 870.3 398.1 923.5 482.5C990 588 898.5 673.5 822 696C844.333 675.333 884.9 617.4 868.5 551C848 468 764.5 359 915.5 339.5Z" fill="#003466"/>
<path d="M2047.5 2494H204.5V2441.5C154.167 2450.17 43 2449.1 1 2375.5H2250.5C2238.67 2403.17 2181.5 2455.1 2047.5 2441.5V2494Z" fill="#003466"/>
<path d="M2134 517H1839.5L1021 2332H1316L1457 2020.5L1599 2333.5H1894L1604 1693L2134 517Z" fill="#003466"/>
<path d="M1783.5 517H1491L672 2332H966L1783.5 517Z" fill="#7F99B2"/>
<path d="M1433.5 517L615 2332H320.5L612 1690.5L80.5 517H375.5L757.5 1360L1137.5 517H1433.5Z" stroke="#003466"/>
<path d="M801 1C740.333 48.8333 639.3 187.3 720.5 358.5C822 572.5 834 674 618.5 716C661.833 692.667 716.2 602.5 587 428.5C425.5 211 678.5 27.5 801 1Z" stroke="#003466"/>
<path d="M915.5 339.5C896 352 870.3 398.1 923.5 482.5C990 588 898.5 673.5 822 696C844.333 675.333 884.9 617.4 868.5 551C848 468 764.5 359 915.5 339.5Z" stroke="#003466"/>
<path d="M2047.5 2494H204.5V2441.5C154.167 2450.17 43 2449.1 1 2375.5H2250.5C2238.67 2403.17 2181.5 2455.1 2047.5 2441.5V2494Z" stroke="#003466"/>
<path d="M2134 517H1839.5L1021 2332H1316L1457 2020.5L1599 2333.5H1894L1604 1693L2134 517Z" stroke="#003466"/>
<path d="M1783.5 517H1491L672 2332H966L1783.5 517Z" stroke="#003466"/>
</svg>
