<svg width="2252" height="2495" viewBox="0 0 2252 2495" fill="none" xmlns="http://www.w3.org/2000/svg">
<path d="M372.888 520.5L754.223 1362.03L756.506 1367.07L758.779 1362.03L1138.12 520.5H1428.63L612.385 2330.5H323.382L613.276 1692.53L613.745 1691.5L613.277 1690.47L83.377 520.5H372.888Z" fill="#F3E5CE" stroke="#174E4F" stroke-width="5"/>
<path d="M780.368 12.4893C719.065 70.9383 639.425 202.338 714.982 361.643C740.33 415.084 759.977 461.275 771.896 501.166C783.829 541.101 787.868 574.253 782.469 601.788C777.119 629.074 762.414 651.29 735.813 669.381C712.875 684.981 681.053 697.525 638.73 707.366C655.197 691.282 669.281 665.71 671.44 630.053C674.396 581.237 655.005 514.046 590.015 426.52C550.249 372.966 536.228 321.857 539.069 274.975C541.916 228.011 561.718 184.782 590.473 147.161C641.85 79.9417 721.177 31.4475 780.368 12.4893Z" fill="#174E4F" stroke="#F3E5CE" stroke-width="10"/>
<path d="M899.502 347.962C882.593 370.432 874.247 416.324 918.271 486.166C950.43 537.186 944.299 582.837 921.174 618.663C901.67 648.878 869.94 672.245 838.279 685.526C847.025 674.574 856.218 660.291 863.37 643.621C874.565 617.529 880.879 585.315 872.354 550.801C867.138 529.68 857.916 506.911 849.641 484.919C841.274 462.685 833.857 441.208 831.655 421.872C829.468 402.664 832.501 386.288 844.254 373.482C854.401 362.427 871.628 353.379 899.502 347.962Z" fill="#174E4F" stroke="#174E4F" stroke-width="10"/>
<path d="M2245.52 2379C2231.07 2406.09 2174.47 2452.97 2046.75 2440.01L2044 2439.73V2492.5H206V2439.53L203.075 2440.04C178.159 2444.33 138.112 2446.21 99.1465 2437.91C61.5382 2429.89 25.3232 2412.48 4.40625 2379H2245.52Z" fill="#F3E5CE" stroke="#174E4F" stroke-width="5"/>
<path d="M2129.13 520.5L1600.72 1692.97L1600.26 1694L1600.72 1695.03L1889.12 2332H1599.61L1458.28 2020.47L1456 2015.44L1453.72 2020.47L1313.39 2330.5H1023.87L1840.12 520.5H2129.13Z" fill="#F3E5CE" stroke="#174E4F" stroke-width="5"/>
<path d="M1774.76 523L961.769 2328H678.742L1493.23 523H1774.76Z" fill="#174E4F" stroke="#174E4F" stroke-width="10"/>
<path d="M1432.5 518L614 2333H319.5L611 1691.5L79.5 518H374.5L756.5 1361L1136.5 518H1432.5Z" stroke="#174E4F" stroke-width="5"/>
<path d="M800 2C739.333 49.8333 638.3 188.3 719.5 359.5C821 573.5 833 675 617.5 717C660.833 693.667 715.2 603.5 586 429.5C424.5 212 677.5 28.5 800 2Z" stroke="#174E4F" stroke-width="5"/>
<path d="M914.5 340.5C895 353 869.3 399.1 922.5 483.5C989 589 897.5 674.5 821 697C843.333 676.333 883.9 618.4 867.5 552C847 469 763.5 360 914.5 340.5Z" stroke="#F3E5CE" stroke-width="5"/>
<path d="M2046.5 2495H203.5V2442.5C153.167 2451.17 42 2450.1 0 2376.5H2249.5C2237.67 2404.17 2180.5 2456.1 2046.5 2442.5V2495Z" stroke="#174E4F" stroke-width="5"/>
<path d="M2133 518H1838.5L1020 2333H1315L1456 2021.5L1598 2334.5H1893L1603 1694L2133 518Z" stroke="#174E4F" stroke-width="5"/>
<path d="M1782.5 518H1490L671 2333H965L1782.5 518Z" stroke="#F3E5CE" stroke-width="5"/>
</svg>
