<svg width="514" height="513" viewBox="0 0 514 513" fill="none" xmlns="http://www.w3.org/2000/svg">
<path fill-rule="evenodd" clip-rule="evenodd" d="M215 423C96.2588 423 0 328.308 0 211.5C0 94.6918 96.2588 0 215 0C333.741 0 430 94.6918 430 211.5C430 266.108 408.962 315.883 374.424 353.408L508.351 485.373C514.503 491.434 514.576 501.335 508.515 507.487C502.453 513.638 492.553 513.711 486.401 507.65L351.605 374.829C314.463 404.926 266.877 423 215 423ZM215.5 391C316.292 391 398 310.411 398 211C398 111.589 316.292 31 215.5 31C114.708 31 33 111.589 33 211C33 310.411 114.708 391 215.5 391Z" fill="#38220F"/>
</svg>
