<svg width="512" height="512" viewBox="0 0 512 512" fill="none" xmlns="http://www.w3.org/2000/svg">
<path fill-rule="evenodd" clip-rule="evenodd" d="M0 256C0 114.615 114.615 0 256 0C397.385 0 512 114.615 512 256C512 326.655 483.376 390.625 437.092 436.947C428.038 446.008 418.308 454.394 407.984 462.023C365.478 493.432 312.908 512 256 512C198.65 512 145.705 493.142 103.027 461.289C92.7555 453.622 83.0783 445.202 74.0777 436.112C28.2817 389.858 0 326.232 0 256ZM255.5 30C130.96 30 30 130.96 30 255.5C30 311.297 50.2653 362.361 83.8372 401.733C104.862 344.429 146.557 299.801 198.052 280.466C167.96 261.651 148 228.613 148 191C148 132.458 196.353 85 256 85C315.647 85 364 132.458 364 191C364 228.77 343.872 261.927 313.57 280.701C364.779 300.161 406.223 344.66 427.163 401.733C460.735 362.361 481 311.297 481 255.5C481 130.96 380.04 30 255.5 30ZM255.5 270C298.854 270 334 235.078 334 192C334 148.922 298.854 114 255.5 114C212.146 114 177 148.922 177 192C177 235.078 212.146 270 255.5 270ZM255.5 481C312.286 481 364.169 460.01 403.815 425.365C387.77 351.735 327.454 297 255.5 297C183.546 297 123.23 351.735 107.185 425.365C146.83 460.01 198.714 481 255.5 481Z" fill="#38220F"/>
</svg>
